# xmcd
#
# Track frame offsets: 
#        150
#        11698
#        22346
#        32503
#        43829
#        53990
#        64064
#        74833
#        86909
#        99013
#
# Disc length: 1579 seconds
#
# Revision: 0
# Processed by: cddbd v1.5.2PL0 Copyright (c) Steve Scherf et al.
# Submitted via: ExactAudioCopy v1.0b4
#
DISCID=8a06290a
DTITLE=Chuck Berry - Back In The USA (LP)
DYEAR=1900
DGENRE=R&B
TTITLE0=Back In The USA
TTITLE1=Good Lovin' Woman
TTITLE2=Sweet Little Rock and Roller
TTITLE3=I Do Really Love you
TTITLE4=Oh Baby Doll
TTITLE5=Thirty Days
TTITLE6=Goodnight It' s Time To Go
TTITLE7=Back To Memphis
TTITLE8=My Heart Will Always Belong To You
TTITLE9=Reelin' and Rockin'
EXTD=
EXTT0=
EXTT1=
EXTT2=
EXTT3=
EXTT4=
EXTT5=
EXTT6=
EXTT7=
EXTT8=
EXTT9=
PLAYORDER=
